<svg id="_034-instagram" data-name="034-instagram" xmlns="http://www.w3.org/2000/svg" width="16.781" height="16.782" viewBox="0 0 16.781 16.782">
  <g id="Group_17" data-name="Group 17">
    <g id="Group_16" data-name="Group 16">
      <path id="Path_9" data-name="Path 9" d="M11.537,0H5.244A5.245,5.245,0,0,0,0,5.244v6.293a5.245,5.245,0,0,0,5.244,5.244h6.293a5.245,5.245,0,0,0,5.244-5.244V5.244A5.245,5.245,0,0,0,11.537,0Zm3.671,11.537a3.675,3.675,0,0,1-3.671,3.671H5.244a3.675,3.675,0,0,1-3.671-3.671V5.244A3.675,3.675,0,0,1,5.244,1.573h6.293a3.675,3.675,0,0,1,3.671,3.671Z" fill="#b2934b"/>
    </g>
  </g>
  <g id="Group_19" data-name="Group 19" transform="translate(4.195 4.195)">
    <g id="Group_18" data-name="Group 18">
      <path id="Path_10" data-name="Path 10" d="M132.2,128a4.2,4.2,0,1,0,4.2,4.2A4.2,4.2,0,0,0,132.2,128Zm0,6.818a2.622,2.622,0,1,1,2.622-2.622A2.626,2.626,0,0,1,132.2,134.818Z" transform="translate(-128 -128)" fill="#b2934b"/>
    </g>
  </g>
  <g id="Group_21" data-name="Group 21" transform="translate(12.342 3.322)">
    <g id="Group_20" data-name="Group 20">
      <ellipse id="Ellipse_1" data-name="Ellipse 1" cx="0.559" cy="0.559" rx="0.559" ry="0.559" fill="#b2934b"/>
    </g>
  </g>
</svg>
