<svg id="linkedin" xmlns="http://www.w3.org/2000/svg" width="16.782" height="16.782" viewBox="0 0 16.782 16.782">
  <path id="Path_25859" data-name="Path 25859" d="M19.331,19.06h0V12.9c0-3.011-.648-5.33-4.168-5.33a3.654,3.654,0,0,0-3.291,1.809h-.049V7.855H8.489v11.2h3.475V13.511c0-1.461.277-2.873,2.086-2.873,1.782,0,1.809,1.667,1.809,2.967V19.06Z" transform="translate(-2.553 -2.278)" fill="#b2934b"/>
  <path id="Path_25860" data-name="Path 25860" d="M.4,7.977H3.875v11.2H.4Z" transform="translate(-0.119 -2.399)" fill="#b2934b"/>
  <path id="Path_25861" data-name="Path 25861" d="M2.015,0A2.025,2.025,0,1,0,4.03,2.015,2.016,2.016,0,0,0,2.015,0Z" fill="#b2934b"/>
</svg>
